<?xml version="1.0" encoding="utf-8"?>
<!-- Generator: Adobe Illustrator 22.0.1, SVG Export Plug-In . SVG Version: 6.00 Build 0)  -->
<svg version="1.2" baseProfile="tiny" id="Calque_1"
	 xmlns="http://www.w3.org/2000/svg" xmlns:xlink="http://www.w3.org/1999/xlink" x="0px" y="0px" width="203.6px" height="172.2px"
	 viewBox="0 0 203.6 172.2" xml:space="preserve">
<path fill="#1E1E1C" d="M1,150.3v-0.7h2.2v-12.6H1v-0.7h5.2v0.7H3.9v12.6h2.2v0.7H1z"/>
<path fill="#1E1E1C" d="M18.9,149.6v-13.4h0.7v14.1h-1.5l-6.9-13.4h-0.3v13.4h-0.7v-14.1h1.5l6.9,13.4H18.9z"/>
<path fill="#1E1E1C" d="M25,137.8c0.9-1.3,2.2-2,3.8-2c1.9,0,3.5,1,3.9,2.6l0.1,0.5h-0.7l-0.1-0.4c-0.2-0.6-0.5-1.1-1.1-1.5
	c-0.5-0.3-1.3-0.5-2.1-0.5c-1.4,0-2.5,0.5-3.2,1.6c-0.8,1.1-1.1,2.7-1.1,4.8c0,2.4,0.3,4.1,1,5.2c0.7,1.2,1.8,1.7,3.3,1.7
	c1.1,0,1.9-0.2,2.5-0.7c0.6-0.5,0.9-1.2,1-2.2l0-0.3l0.7,0l0,0.3c-0.1,1.2-0.6,2.1-1.3,2.7c-0.7,0.6-1.7,0.9-2.9,0.9
	c-1.8,0-3.1-0.7-4-2.1c-0.7-1.2-1.1-3.1-1.1-5.6C23.8,140.8,24.2,139.1,25,137.8z"/>
<path fill="#1E1E1C" d="M41.2,150.6c-1.8,0-3-0.6-3.6-1.9c-0.6-1.2-0.7-2.8-0.7-5.3v-7.3h0.7v7.3c0,2.4,0.1,4,0.6,5
	c0.5,1,1.4,1.4,2.9,1.4c1.6,0,2.5-0.4,3-1.4c0.5-1.1,0.6-2.8,0.6-5v-7.2h0.7v7.2c0,2.4-0.1,4.1-0.7,5.3
	C44.1,150,43,150.6,41.2,150.6z"/>
<path fill="#1E1E1C" d="M59.1,149.2c-0.8,0.7-2.1,1.1-3.9,1.1H50v-14.1h5.3c1.1,0,2.1,0.3,2.8,1c0.8,0.7,1.2,1.6,1.2,2.6
	c0,1.3-0.6,2.4-1.9,3.1c0.8,0.2,1.4,0.5,1.8,0.9c0.7,0.7,1,1.6,1,2.7C60.2,147.6,59.8,148.5,59.1,149.2z M55.2,142.6
	c1.9,0,3.2-1.2,3.2-2.9c0-1.7-1.3-2.8-3.2-2.8h-4.6v5.7H55.2z M58.6,144.3c-0.7-0.7-1.8-1-3.4-1h-4.6v6.2h4.6c1.7,0,2.8-0.3,3.5-1
	c0.6-0.7,0.7-1.5,0.7-2C59.4,145.6,59.2,144.8,58.6,144.3z"/>
<path fill="#1E1E1C" d="M62,150.3l3.8-14.4h3.2l4.1,14.4h-0.7l-0.7-2.7h-8.1l-0.8,2.7H62z M71.3,146.9l-0.3-0.9l-2.7-9.3h-2
	l-2.7,10.2H71.3z"/>
<path fill="#1E1E1C" d="M79,150.3V137h-3.8v-0.7h8.3v0.7h-3.8v13.4H79z"/>
<path fill="#1E1E1C" d="M86.7,150.3v-14.1h8.6v0.7h-7.9v5.7h7.6v0.7h-7.6v6.3h7.9v0.7H86.7z"/>
<path fill="#1E1E1C" d="M104,150.6c-1.8,0-3-0.6-3.6-1.9c-0.6-1.2-0.7-2.8-0.7-5.3v-7.3h0.7v7.3c0,2.4,0.1,4,0.6,5
	c0.5,1,1.4,1.4,2.9,1.4c1.6,0,2.5-0.4,3-1.4c0.5-1.1,0.6-2.8,0.6-5v-7.2h0.7v7.2c0,2.4-0.1,4.1-0.7,5.3
	C107,150,105.9,150.6,104,150.6z"/>
<path fill="#1E1E1C" d="M117.9,144.1h-4.3v6.3h-0.7v-14.1h5.6c1.4,0,2.5,0.4,3.1,1.1c0.6,0.6,0.9,1.5,0.9,2.7c0,1-0.4,2-1.1,2.8
	c-0.5,0.5-1.1,0.9-1.8,1.1l-0.1,0l0.1,0.1c1.1,0.9,2.5,4.7,2.5,4.7c0.1,0.3,0.3,0.7,0.4,0.9h1.1v0.7h-1.5l-0.1-0.2
	c-0.1-0.3-0.5-1.1-0.5-1.1c-0.4-1-0.9-2.3-1.5-3.3C119,144.6,118.4,144.1,117.9,144.1z M120.7,142.3c0.6-0.6,0.9-1.5,0.9-2.3
	c0-2.2-1.1-3-3.2-3h-4.8v6.4h4.8C119.2,143.3,120.1,143,120.7,142.3z"/>
<path fill="#1E1E1C" d="M60.2,170.5v-14.1h8.6v0.7H61v5.7h7.6v0.7H61v6.3h7.9v0.7H60.2z"/>
<path fill="#1E1E1C" d="M82,169.8v-13.4h0.7v14.1h-1.5l-6.9-13.4H74v13.4h-0.7v-14.1h1.5l6.9,13.4H82z"/>
<path fill="#1E1E1C" d="M96.5,169.2c-1,1.4-2.3,1.9-4.3,1.9c-1,0-2-0.2-2.7-0.7c-0.8-0.4-1.4-1.1-1.8-1.9c-0.6-1.2-0.9-2.8-0.9-5
	c0-2.2,0.4-4,1.2-5.2c0.9-1.4,2.4-2.1,4.3-2.1c1.6,0,2.8,0.4,3.6,1.2c0.6,0.6,0.8,1.4,0.8,1.6c0,0.1,0,0.2,0,0.3H96
	c0-0.1,0-0.2,0-0.2c0-0.2-0.1-0.8-0.6-1.3c-0.6-0.6-1.6-0.9-3-0.9c-1.6,0-2.9,0.6-3.7,1.8c-0.7,1.1-1.1,2.7-1.1,4.8
	c0,2.1,0.3,3.6,0.8,4.7c0.7,1.4,2.1,2.1,3.9,2.1c2.4,0,3.2-0.9,3.6-1.5c0.6-0.9,0.7-2.4,0.7-3.8h-2.9v-0.7h3.6v0.4
	C97.3,166.6,97.2,168.1,96.5,169.2z"/>
<path fill="#1E1E1C" d="M99.6,170.5l3.8-14.4h3.2l4.1,14.4h-0.7l-0.7-2.7h-8.1l-0.8,2.7H99.6z M108.9,167.1l-0.3-0.9l-2.7-9.3h-2
	l-2.7,10.2H108.9z"/>
<path fill="#1E1E1C" d="M123.4,169.2c-1,1.4-2.3,1.9-4.3,1.9c-1,0-2-0.2-2.7-0.7c-0.8-0.4-1.4-1.1-1.8-1.9c-0.6-1.2-0.9-2.8-0.9-5
	c0-2.2,0.4-4,1.2-5.2c0.9-1.4,2.4-2.1,4.3-2.1c1.6,0,2.8,0.4,3.6,1.2c0.6,0.6,0.8,1.4,0.8,1.6c0,0.1,0,0.2,0,0.3h-0.7
	c0-0.1,0-0.2,0-0.2c0-0.2-0.1-0.8-0.6-1.3c-0.6-0.6-1.6-0.9-3-0.9c-1.6,0-2.9,0.6-3.7,1.8c-0.7,1.1-1.1,2.7-1.1,4.8
	c0,2.1,0.3,3.6,0.8,4.7c0.7,1.4,2.1,2.1,3.9,2.1c2.4,0,3.2-0.9,3.6-1.5c0.6-0.9,0.7-2.4,0.7-3.8h-2.9v-0.7h3.6v0.4
	C124.1,166.6,124,168.1,123.4,169.2z"/>
<path fill="#1E1E1C" d="M127.7,170.5v-14.1h8.6v0.7h-7.9v5.7h7.6v0.7h-7.6v6.3h7.9v0.7H127.7z"/>
<path fill="#020203" d="M129.2,152.8c0.8-0.5,1.5-1,2.3-1.5c2.4,0.4,5.4-0.4,7.3-1.4c2.2-1.2,4.1-4.7,4.5-6c0.4-1.4,0.3-0.3,0-0.7
	c-0.3-0.5,0.7-0.1-0.7-0.3c-1.4-0.3-5.4,0-7.3,1.5c-1.8,1.3-3.7,3.7-4.4,6c-0.5,0.3-0.9,0.5-1.3,0.8"/>
<g>
	<g>
		<path fill="#65B331" d="M181.1,1h-41.7h0H98.2c-11.7,0-21.6,9.6-21.4,21.3c0.2,11.3,9.5,20.5,20.9,20.5h20.9v62.6
			c0,0.2,0,0.4,0,0.7c-0.1,4.3-0.6,9.3-2.9,11.8c0,0,0,0,0,0c-0.1,0.1-0.2,0.2-0.3,0.3c-0.1,0.1-0.1,0.1-0.2,0.2
			c-3.1,2.9-7.2,5-10.2,5c-1.9,0-3.3-0.8-3.9-2.7c2.6-1,14-9.3,14-17.2c-0.6-3.1-2.9-5.1-5.7-6.2c-1-0.4-2-0.6-3-0.6
			c-1.2,0-2.4,0.3-3.5,0.8c-5.9,2.7-9.2,9.7-10,15.4c0,0.4-0.1,0.8-0.1,1.2c-3.1,6.1-6.8,10.7-8.6,10.6c-1.1-1.2-1.8-4.3-1.8-7.6
			c0-1.3,0.1-2.6,0.4-3.8c4.6-6.1,13.7-23,16-33.7c0.8-3.5-0.7-6.6-3.7-8.2H95c-1.5-0.9-2.8-1.3-4.1-1.3c-1.5,0-2.9,0.7-4.4,2.3
			c-5.1,5.8-11.4,27-11.4,41.6c0,5.2,1.3,11.6,5.1,13.9c1.3,0.8,2.8,1.2,4.3,1.2c2.6,0,5.1-1.2,7.3-3.3c0.8-0.8,1.7-2.2,2.7-3.8
			c0.6,1.1,1.4,2,2.3,2.8c3.3,2.5,7.2,3.8,11.1,3.8c6.6,0,12.9-3.7,15.1-11.5c0.2-0.7,0.3-1.3,0.4-1.9c0.2-0.1,0.3-0.3,0.4-0.5l0,0
			c-1.3-6,0.3-13.5,2.7-18.5c2.7-5.7,11.2-10.8,14.6-11.9c0.9-0.3,1.4-0.5,1.6-0.6c0.3-0.1,0.8-0.6,1-0.9c-0.2,0.4-0.1,1.2-0.1,1.4
			c0,0.2,0.1,0.7,0.3,1.7c0.8,3.4,0.7,13.4-2.8,18.6c-3.1,4.6-8.7,9.8-14.6,11.7c-0.5,0.9-1,1.8-1.5,2.6c-0.3,0.5-0.2,1.2,0.2,1.6
			c3.7,3.5,8.7,5.6,14.2,5.6h0c11.5,0,20.9-9.3,20.9-20.9V42.7h20.3c11.7,0,21.6-9.6,21.4-21.3C201.8,10.1,192.5,1,181.1,1z
			 M92.1,76.5c1.7-2,1.6,1.2,1,3.1c-1.8,6.6-6.6,17.5-8.6,20.8C85.7,92.6,90.1,79.3,92.1,76.5z M103.3,107.2c0.8-1.2,3.5-5.4,5-4.4
			c0.4,0.4,0.4,2.2-0.6,3.9c-2.3,3.7-5,7.1-7.8,8.8C100.8,111.6,102.4,108.7,103.3,107.2z"/>
	</g>
</g>
</svg>
